<svg width="183" height="23" viewBox="0 0 183 23" xmlns="http://www.w3.org/2000/svg"><path d="M.313 18.227v-17.617h6.981c1.862 0 3.456.842 4.783 2.525 1.307 1.664 1.961 3.684 1.961 6.06 0 2.496-.654 4.625-1.961 6.387-1.327 1.763-2.921 2.644-4.783 2.644h-6.981zm1.188-1.129h5.793c1.525 0 2.832-.772 3.921-2.317 1.089-1.545 1.634-3.407 1.634-5.585 0-2.06-.545-3.813-1.634-5.258-1.089-1.446-2.396-2.169-3.921-2.169h-5.793v15.329zm15.465 1.129h-1.188v-12.656h1.188v2.852c.337-.911.832-1.654 1.485-2.228.673-.555 1.386-.832 2.139-.832h.683v1.367l-.208-.059-.119-.059c-.931 0-1.773.396-2.525 1.188-.753.792-1.238 1.792-1.456 3.001v7.427zm10.475.208c-1.802 0-3.238-.594-4.308-1.782-1.089-1.188-1.634-2.773-1.634-4.753 0-2.04.545-3.684 1.634-4.932 1.07-1.228 2.505-1.842 4.308-1.842 1.783 0 3.218.614 4.308 1.842 1.07 1.248 1.604 2.892 1.604 4.932 0 1.981-.535 3.565-1.604 4.753-1.089 1.188-2.525 1.782-4.308 1.782zm0-.98c1.426 0 2.575-.505 3.446-1.515.852-1.01 1.277-2.357 1.277-4.04 0-1.743-.426-3.129-1.277-4.159-.871-1.05-2.02-1.575-3.446-1.575-1.446 0-2.595.525-3.446 1.575-.871 1.03-1.307 2.416-1.307 4.159 0 1.683.436 3.03 1.307 4.04.852 1.01 2 1.515 3.446 1.515zm9.049 5.526h-1.188v-17.409h1.188v2.614c.337-.911.901-1.654 1.693-2.228.792-.555 1.664-.832 2.614-.832 1.703 0 3.06.614 4.07 1.842 1.03 1.248 1.545 2.892 1.545 4.932 0 1.981-.495 3.565-1.485 4.753-.97 1.188-2.278 1.782-3.921 1.782-.97 0-1.862-.267-2.674-.802-.812-.515-1.426-1.218-1.842-2.109v7.457zm4.427-5.407c1.307 0 2.347-.525 3.119-1.575.792-1.07 1.188-2.476 1.188-4.219 0-1.743-.396-3.129-1.188-4.159-.772-1.05-1.812-1.575-3.119-1.575-1.228 0-2.268.564-3.119 1.693-.871 1.109-1.307 2.456-1.307 4.04 0 1.604.436 2.971 1.307 4.1.852 1.129 1.891 1.693 3.119 1.693zm17.117.654h-1.188v-12.656h1.188v2.139c.357-.753.862-1.347 1.515-1.782.654-.456 1.357-.683 2.109-.683.891 0 1.674.238 2.347.713.693.495 1.139 1.119 1.337 1.872.376-.792.941-1.416 1.693-1.872.772-.475 1.614-.713 2.525-.713 1.129 0 2.099.386 2.911 1.159.792.772 1.188 1.703 1.188 2.793v9.031h-1.188v-9.031c0-.832-.287-1.545-.862-2.139-.555-.594-1.238-.891-2.05-.891-.931 0-1.763.327-2.495.98-.733.654-1.188 1.485-1.367 2.495v8.586h-1.188v-9.031c0-.832-.267-1.545-.802-2.139-.535-.594-1.178-.891-1.931-.891-.891 0-1.693.347-2.406 1.04-.693.713-1.139 1.604-1.337 2.674v8.348zm23.071.446c-1.703 0-3.07-.614-4.1-1.842-1.03-1.248-1.545-2.892-1.545-4.932 0-2.04.515-3.684 1.545-4.932 1.03-1.228 2.396-1.842 4.1-1.842 1.703 0 3.07.564 4.1 1.693 1.03 1.129 1.545 2.634 1.545 4.516v.564h-10.101c0 1.723.406 3.1 1.218 4.129.812 1.03 1.891 1.545 3.238 1.545 1.01 0 1.921-.267 2.733-.802.832-.555 1.406-1.277 1.723-2.169h1.188c-.198 1.169-.832 2.139-1.901 2.911-1.07.772-2.317 1.159-3.743 1.159zm-4.456-7.902h8.912v-.446c-.099-1.169-.574-2.159-1.426-2.971-.871-.792-1.882-1.188-3.03-1.188-1.149 0-2.149.406-3.001 1.218-.871.832-1.357 1.852-1.456 3.06v.327zm21.484 7.457h-1.188v-17.617h7.962c1.149 0 2.119.465 2.911 1.396.812.931 1.218 2.05 1.218 3.357 0 1.367-.406 2.535-1.218 3.506-.792.97-1.763 1.456-2.911 1.456h-6.773v7.902zm0-9.031h6.566c.871 0 1.614-.356 2.228-1.069.614-.693.921-1.545.921-2.555 0-1.05-.307-1.951-.921-2.703-.614-.733-1.357-1.099-2.228-1.099h-6.566v7.427zm18.323 9.477c-1.703 0-3.149-.574-4.337-1.723-1.208-1.129-1.812-2.505-1.812-4.129h1.188c0 1.307.485 2.426 1.456 3.357.97.931 2.139 1.396 3.506 1.396 1.485 0 2.763-.396 3.832-1.188 1.05-.792 1.575-1.753 1.575-2.882 0-.97-.465-1.782-1.396-2.436-.911-.654-2.139-1.05-3.684-1.188-1.882-.158-3.387-.693-4.516-1.604-1.129-.911-1.693-2.03-1.693-3.357 0-1.307.574-2.426 1.723-3.357s2.535-1.396 4.159-1.396c1.743 0 3.238.485 4.486 1.456 1.228.97 1.842 2.139 1.842 3.506h-1.188c0-1.05-.505-1.951-1.515-2.703-.99-.753-2.198-1.129-3.624-1.129-1.287 0-2.396.356-3.327 1.069-.911.693-1.367 1.545-1.367 2.555 0 .99.475 1.822 1.426 2.495.97.673 2.248 1.079 3.832 1.218 1.822.158 3.288.683 4.397 1.575 1.089.891 1.634 1.99 1.634 3.298 0 1.426-.644 2.644-1.931 3.654-1.287 1.01-2.842 1.515-4.664 1.515zm8.506-.446v-17.617h6.981c1.862 0 3.456.842 4.783 2.525 1.307 1.664 1.961 3.684 1.961 6.06 0 2.496-.654 4.625-1.961 6.387-1.327 1.763-2.921 2.644-4.783 2.644h-6.981zm1.188-1.129h5.793c1.525 0 2.832-.772 3.921-2.317 1.089-1.545 1.634-3.407 1.634-5.585 0-2.06-.545-3.813-1.634-5.258-1.089-1.446-2.396-2.169-3.921-2.169h-5.793v15.329zm24.187 1.129h-1.188v-11.378h-1.99v-1.159h1.99v-2.377c0-.753.267-1.386.802-1.901.535-.535 1.178-.802 1.931-.802h.713v.921h-.683c-.436 0-.802.178-1.099.535-.317.337-.475.753-.475 1.248v2.377h2.258v1.159h-2.258v11.378zm4.473 0h-1.188v-12.656h1.188v12.656zm-1.188-15.805v-1.812h1.188v1.812h-1.188zm5.127 15.805h-1.188v-17.617h1.188v17.617zm7.623.446c-1.703 0-3.07-.614-4.1-1.842-1.03-1.248-1.545-2.892-1.545-4.932 0-2.04.515-3.684 1.545-4.932 1.03-1.228 2.396-1.842 4.1-1.842 1.703 0 3.07.564 4.1 1.693 1.03 1.129 1.545 2.634 1.545 4.516v.564h-10.101c0 1.723.406 3.1 1.218 4.129.812 1.03 1.891 1.545 3.238 1.545 1.01 0 1.921-.267 2.733-.802.832-.555 1.406-1.277 1.723-2.169h1.188c-.198 1.169-.832 2.139-1.901 2.911-1.07.772-2.317 1.159-3.743 1.159zm-4.456-7.902h8.912v-.446c-.099-1.169-.574-2.159-1.426-2.971-.871-.792-1.882-1.188-3.03-1.188-1.149 0-2.149.406-3.001 1.218-.871.832-1.357 1.852-1.456 3.06v.327zm15.644 7.784c-1.347 0-2.486-.396-3.416-1.188-.951-.792-1.426-1.753-1.426-2.882h1.099c0 .852.366 1.584 1.099 2.198.733.594 1.614.891 2.644.891 1.188 0 2.149-.267 2.882-.802.713-.555 1.069-1.277 1.069-2.169 0-.673-.376-1.248-1.129-1.723-.753-.456-1.763-.743-3.03-.862-1.347-.119-2.416-.495-3.208-1.129-.812-.634-1.218-1.416-1.218-2.347 0-1.05.406-1.862 1.218-2.436.812-.574 1.951-.862 3.416-.862 1.406 0 2.525.307 3.357.921.852.614 1.277 1.436 1.277 2.466h-1.129c-.139-.772-.515-1.376-1.129-1.812-.614-.436-1.406-.654-2.377-.654-1.07 0-1.921.218-2.555.654-.634.436-.951 1.01-.951 1.723 0 .673.386 1.248 1.159 1.723.753.456 1.763.743 3.03.862 1.327.119 2.396.515 3.208 1.188.792.673 1.188 1.515 1.188 2.525 0 1.129-.465 2.03-1.396 2.703-.911.673-2.139 1.01-3.684 1.01z" fill="#fff"/></svg>