<?xml version="1.0" encoding="UTF-8"?>
<svg width="272px" height="270px" viewBox="0 0 272 270" version="1.1" xmlns="http://www.w3.org/2000/svg" xmlns:xlink="http://www.w3.org/1999/xlink">
    <defs></defs>
    <g id="Page-1" stroke="none" stroke-width="1" fill="none" fill-rule="evenodd" opacity="0.0208333333">
        <g id="Artboard" transform="translate(-64.000000, -98.000000)" fill="#FFFFFF">
            <path d="M204.706523,231.044904 L202.677997,227.229802 L201.66576,226.521026 L198.858705,226.176363 L194.829875,227.722886 L194.008117,228.63554 L193.318711,231.400598 L193.984169,234.069605 L196.838621,237.239796 L197.931132,237.659172 L200.670249,237.32285 L204.154987,234.88281 L204.706523,233.845522 L204.706523,231.044904 Z M226.429964,271.900755 C226.328767,272.097466 226.190441,272.279833 226.015355,272.437482 C225.248138,273.128286 224.062879,273.062678 223.375906,272.299718 L208.445144,255.717426 L208.445144,366.131486 C208.445144,367.163438 207.615423,368 206.575833,368 C205.543442,368 204.706523,367.15815 204.706523,366.131486 L204.706523,279.655997 C204.457829,280.020596 204.078628,280.298965 203.61286,280.415094 C202.611135,280.664852 201.595414,280.050478 201.347042,279.05431 L196.097612,257.999996 L144.582224,354.886348 C144.097752,355.797508 142.97241,356.146618 142.054507,355.65856 C141.142959,355.173882 140.799228,354.037663 141.281218,353.131172 L194.745926,252.578681 L193.356926,247.007707 L188.596306,250.34113 L182.330208,275.473074 C182.080557,276.474372 181.073099,277.085357 180.06439,276.833858 C179.062665,276.5841 178.454268,275.564787 178.70264,274.568619 L183.928282,253.609715 L94.3317679,316.34587 C93.4864424,316.937773 92.3252622,316.737937 91.7289783,315.886356 C91.1368228,315.04067 91.3463889,313.872241 92.187383,313.283371 L185.306899,248.080383 L186.619775,242.814729 L180.572565,243.557233 L163.627686,262.376428 C162.937175,263.143317 161.760803,263.209812 160.988237,262.514191 C160.221021,261.823387 160.162376,260.637762 160.849349,259.874802 L174.916437,244.251718 L67.0353327,257.497852 C66.0110728,257.623615 65.0796286,256.90203 64.9529346,255.87019 C64.8271177,254.845494 65.5606978,253.912217 66.5797094,253.787098 L152.270001,243.265654 C151.937749,243.058424 151.667394,242.744449 151.515052,242.347586 C151.145076,241.383765 151.631086,240.300742 152.58956,239.932819 L173.005696,232.095798 L70.4412858,192.72501 C69.4778758,192.355191 68.9942231,191.280783 69.3667786,190.310243 C69.7367546,189.346422 70.8226141,188.866783 71.7810877,189.234706 L178.221872,230.093496 L183.536384,228.053446 L179.731645,223.827855 L153.796719,220.643447 C152.772459,220.517683 152.04325,219.592195 152.169944,218.560355 C152.295761,217.535659 153.23333,216.807574 154.252342,216.932693 L175.918534,219.592967 L102.58899,138.152257 C101.898479,137.385367 101.955313,136.208489 102.727878,135.512868 C103.495095,134.822063 104.680354,134.887671 105.367327,135.650631 L181.574662,220.287452 L186.856515,220.935982 L185.411297,215.139528 L164.492762,200.492213 C163.647437,199.900309 163.438074,198.740809 164.034357,197.889227 C164.626513,197.043542 165.796153,196.840843 166.637147,197.429714 L184.03268,209.610197 L157.676943,103.90311 C157.427291,102.901811 158.029983,101.889371 159.038692,101.637872 C160.040418,101.388113 161.056138,102.002488 161.304511,102.998656 L182.17028,186.686685 C182.338565,186.415175 182.579457,186.182819 182.883965,186.020909 C183.795513,185.53623 184.929693,185.88663 185.411682,186.793121 L195.742994,206.223493 L222.372739,99.4174196 C222.622391,98.4161212 223.629849,97.8051361 224.638558,98.0566355 C225.640283,98.3063937 226.24868,99.325706 226.000307,100.321874 L204.974834,184.650439 C205.30098,184.110507 205.893156,183.749758 206.575833,183.749758 C207.608225,183.749758 208.445144,184.591608 208.445144,185.618272 L208.445144,207.014316 L281.636265,125.727341 C282.326776,124.960452 283.503148,124.893957 284.275713,125.589578 C285.04293,126.280382 285.101574,127.466007 284.414602,128.228967 L208.445144,212.601598 L208.445144,218.491869 L214.004994,216.357642 L226.027039,193.747464 C226.511511,192.836305 227.636853,192.487195 228.554756,192.975252 C229.466304,193.459931 229.810034,194.59615 229.328045,195.502641 L219.325099,214.315445 L321.113163,175.242668 C322.076573,174.87285 323.154916,175.347664 323.527472,176.318204 C323.897448,177.282025 323.411438,178.365048 322.452965,178.732972 L241.993367,209.618517 C242.249821,209.752888 242.479247,209.949557 242.657941,210.204759 C243.250096,211.050444 243.04053,212.218873 242.199536,212.807744 L224.066304,225.504769 L333.420038,238.93172 C334.444298,239.057483 335.173507,239.982971 335.046813,241.014811 C334.920996,242.039508 333.983426,242.767592 332.964414,242.642473 L247.016893,232.089445 C247.450811,232.38034 247.760546,232.851681 247.829803,233.415734 C247.95562,234.44043 247.22204,235.373706 246.203028,235.498825 L224.764769,238.131113 L314.504915,300.96784 C315.350241,301.559743 315.559604,302.719243 314.96332,303.570825 C314.371164,304.41651 313.201524,304.619209 312.36053,304.030338 L219.219134,238.812031 L213.447437,239.520706 L216.182903,244.66537 L240.304691,253.924857 C241.268101,254.294675 241.751754,255.369084 241.379198,256.339624 C241.009222,257.303445 239.923363,257.783084 238.964889,257.41516 L218.858236,249.696939 L270.157503,346.176828 C270.641975,347.087988 270.302117,348.216159 269.384214,348.704216 C268.472666,349.188895 267.338486,348.838495 266.856497,347.932004 L226.429964,271.900755 Z M224.097266,267.513588 L213.53813,247.654742 L208.445144,245.699727 L208.445144,250.130145 L224.097266,267.513588 Z M210.862797,242.623173 L209.472681,240.008745 L208.445144,240.134911 L208.445144,241.695122 L210.862797,242.623173 Z M194.391309,211.644808 L183.096881,190.403079 L188.700703,212.878782 L193.283563,216.087735 L194.391309,211.644808 Z M210.897768,234.725477 L211.567389,235.98485 L214.642302,235.607298 L212.14035,233.855412 L210.897768,234.725477 Z M202.591189,219.103073 L203.313579,220.461692 L204.706523,219.926991 L204.706523,216.753757 L202.591189,219.103073 Z M197.014378,216.578084 L196.563943,218.384682 L197.571799,219.09039 L198.061195,218.54686 L197.014378,216.578084 Z M198.366064,211.156769 L200.723369,215.590216 L204.706523,211.166476 L204.706523,185.726577 L198.366064,211.156769 Z M190.07932,218.408113 L190.83127,221.424021 L191.919755,221.55767 L192.314761,219.973386 L190.07932,218.408113 Z M215.399393,231.573406 L220.187936,234.92638 L245.154905,231.860821 L219.489471,228.709502 L215.399393,231.573406 Z M212.14035,229.291399 L213.943837,228.028584 L212.150756,227.808421 L211.573344,228.894377 L212.14035,229.291399 Z M187.825317,224.821633 L185.387773,224.52234 L187.275005,226.618324 L188.186084,226.268593 L187.825317,224.821633 Z M218.520669,224.823851 L238.103842,211.111566 L216.649767,219.347014 L214.030805,224.272565 L218.520669,224.823851 Z M210.056049,223.784527 L211.329661,221.389211 L208.445144,222.496474 L208.445144,223.586732 L210.056049,223.784527 Z M186.215988,231.029447 L183.438049,232.095798 L185.239155,232.787178 L186.518905,231.365871 L186.215988,231.029447 Z M178.221872,234.098101 L155.312895,242.892033 L178.729547,240.01683 L182.559551,235.763179 L178.221872,234.098101 Z M184.385675,239.322345 L187.588576,238.929078 L187.869699,237.801554 L186.298172,237.198302 L184.385675,239.322345 Z M189.974923,244.811798 L192.388125,243.122056 L192.142431,242.136632 L190.59453,242.32669 L189.974923,244.811798 Z M196.637307,244.71076 L197.368996,247.645404 L198.78284,244.98635 L197.801015,243.895923 L196.637307,244.71076 Z M198.720681,253.066719 L204.706523,277.074619 L204.706523,251.565267 L201.445014,247.942995 L198.720681,253.066719 Z M204.706523,245.977986 L204.706523,244.264605 L203.622169,243.848361 L203.312834,244.430137 L204.706523,245.977986 Z" id="lines"></path>
        </g>
    </g>
</svg>