<?xml version="1.0" encoding="UTF-8"?>
<svg width="59px" height="72px" viewBox="0 0 59 72" version="1.1" xmlns="http://www.w3.org/2000/svg" xmlns:xlink="http://www.w3.org/1999/xlink">
    <defs>
        <polygon id="path-1" points="0 0 42.2608696 0 54.0050779 15.2807018 54.0050779 67 0 67"></polygon>
    </defs>
    <g id="Page-1" stroke="none" stroke-width="1" fill="none" fill-rule="evenodd">
        <g id="Artboard" transform="translate(-168.000000, -229.000000)">
            <g id="PSD-icon" transform="translate(170.325472, 229.830381)">
                <mask id="mask-2" fill="white">
                    <use xlink:href="#path-1"></use>
                </mask>
                <use id="Rectangle-3" fill="#DEEBED" fill-rule="evenodd" xlink:href="#path-1"></use>
                <polygon id="Rectangle" fill="#D6D6D6" fill-rule="evenodd" mask="url(#mask-2)" points="42.2608696 0 54 15.2807018 42.2608696 15.2807018"></polygon>
                <g id="Group-2" stroke-width="1" fill-rule="evenodd" mask="url(#mask-2)">
                    <g transform="translate(12.913043, 49.368421)">
                        <rect id="Rectangle-4" fill="#357FCB" x="0" y="0" width="28.173913" height="11.754386" rx="3"></rect>
                        <path d="M5.97228261,9.40350877 L5.97228261,2.60800439 L8.33845109,2.60800439 C9.16386282,2.60800439 9.75310625,2.74651497 10.106199,3.0235403 C10.4592918,3.30056562 10.6358356,3.76354299 10.6358356,4.41248629 C10.6358356,5.14713909 10.3996797,5.71878222 9.92736073,6.12743284 C9.4550418,6.53608346 8.79395805,6.7404057 7.94408967,6.7404057 L7.35713315,6.7404057 L7.35713315,9.40350877 L5.97228261,9.40350877 Z M7.35713315,5.80831963 L7.63226902,5.80831963 C8.11528774,5.80831963 8.49665281,5.69582761 8.77637568,5.47084019 C9.05609855,5.24585277 9.19595788,4.94051728 9.19595788,4.55482456 C9.19595788,3.87833178 8.76644451,3.54009046 7.90740489,3.54009046 L7.35713315,3.54009046 L7.35713315,5.80831963 Z M11.7385802,9.34381853 L11.7385802,8.17756305 C12.4692224,8.48366838 13.094386,8.63671875 13.6140897,8.63671875 C13.9778823,8.63671875 14.2644793,8.55560205 14.4738893,8.39336623 C14.6832993,8.2311304 14.7880027,8.01073787 14.7880027,7.73218202 C14.7880027,7.51178618 14.7222765,7.32582998 14.590822,7.17430784 C14.4593675,7.0227857 14.2102192,6.84295152 13.8433696,6.63479989 L13.3893954,6.38226425 C12.7810364,6.03942628 12.351523,5.71113324 12.1008424,5.39737527 C11.8501618,5.08361731 11.7248234,4.71706167 11.7248234,4.29769737 C11.7248234,3.73752461 11.9304089,3.28755652 12.3415863,2.94777961 C12.7527636,2.60800269 13.2961515,2.43811678 13.9717663,2.43811678 C14.5128696,2.43811678 15.122748,2.51617247 15.8014198,2.67228618 L15.8014198,3.7604852 C15.1074626,3.50029567 14.5587248,3.37020285 14.1551902,3.37020285 C13.843368,3.37020285 13.5934554,3.43984077 13.405445,3.5791187 C13.2174345,3.71839662 13.1234307,3.90129181 13.1234307,4.12780976 C13.1234307,4.31453401 13.189157,4.47829791 13.3206114,4.61910636 C13.4520659,4.75991481 13.6996857,4.93286173 14.0634783,5.1379523 L14.5495516,5.40885417 C15.2037669,5.77618056 15.6546795,6.11442188 15.902303,6.42358827 C16.1499265,6.73275465 16.2737364,7.10925856 16.2737364,7.55311129 C16.2737364,8.18368828 16.0398733,8.67804097 15.5721399,9.03618421 C15.1044066,9.39432745 14.4593723,9.57339638 13.6370177,9.57339638 C13.0928573,9.57339638 12.4600512,9.4968712 11.7385802,9.34381853 Z M16.9678125,9.40350877 L16.9678125,2.60800439 L19.8888383,2.60800439 C20.940474,2.60800439 21.7460026,2.88732131 22.3054484,3.44596354 C22.8648941,4.00460577 23.1446128,4.81041597 23.1446128,5.86341831 C23.1446128,6.98376383 22.8480804,7.85385518 22.2550068,8.47371848 C21.6619332,9.09358177 20.8319483,9.40350877 19.7650272,9.40350877 L16.9678125,9.40350877 Z M18.3801766,8.4392818 L19.4348641,8.4392818 C20.1777347,8.4392818 20.7318222,8.23342905 21.0971433,7.82171738 C21.4624645,7.41000571 21.6451223,6.78479495 21.6451223,5.94606634 C21.6451223,5.29712303 21.4983846,4.75685523 21.2049049,4.32524671 C21.0031376,4.02832454 20.7601033,3.82323704 20.4757948,3.70997807 C20.1914864,3.5967191 19.7772582,3.54009046 19.2330978,3.54009046 L18.3801766,3.54009046 L18.3801766,8.4392818 Z" id="PSD" fill="#FFFFFF"></path>
                    </g>
                </g>
            </g>
        </g>
    </g>
</svg>